# xmcd CD database file
#
# Track frame offsets:
#	150
#	15477
#	31128
#	50511
#	61769
#	86659
#	102920
#	116401
#	141230
#	173128
#	212363
#	230928
#	242777
#	263945
#	290186
#	310211
#
# Disc length: 4502 seconds
#
# Revision: 0
# Processed by: cddbd v1.5.2PL0 Copyright (c) Steve Scherf et al.
# Submitted via: Feurio! 1.68 - http://www.feurio.com
#
DISCID=e2119410
DTITLE=Pcfhremix 10.06 (Sean) - Good For an Autumn Drive and Not Much Else
DYEAR=1900
DGENRE=Contemporary Christian
TTITLE0=Mahalia Jackson - I'm on My Way
TTITLE1=Royal City - Bad Luck
TTITLE2=Timesbold - Gin I Win
TTITLE3=Ann Peebles - I Can't Stand the Rain
TTITLE4=Broken Social Scene - Cause =Time
TTITLE5=Interpol - Evil
TTITLE6=Skeeter Davis and the Davis Sisters - I Forgot More Than You Will Ever 
TTITLE6=Know
TTITLE7=Marianne Faithfull - Sister Morphine
TTITLE8=Ladyhawk - Long 'til the Morning
TTITLE9=Built to Spill - Goin' Against Your Mind
TTITLE10=Shudder to Think - X-French Tee Shirt
TTITLE11=Petula Clark - Heart
TTITLE12=Fernando - The Devil's in the Sky
TTITLE13=Candi Staton - His Hands
TTITLE14=Joe Pernice - Bum Leg
TTITLE15=Patty Loveless - You'll Never Leave Harlan Alive
EXTD=
EXTT0=
EXTT1=
EXTT2=
EXTT3=
EXTT4=
EXTT5=
EXTT6=
EXTT7=
EXTT8=
EXTT9=
EXTT10=
EXTT11=
EXTT12=
EXTT13=
EXTT14=
EXTT15=
PLAYORDER=
